<?xml version="1.0" standalone="no"?>
<!DOCTYPE svg PUBLIC "-//W3C//DTD SVG 20010904//EN"
 "http://www.w3.org/TR/2001/REC-SVG-20010904/DTD/svg10.dtd">
<svg version="1.0" xmlns="http://www.w3.org/2000/svg"
 width="64.000000pt" height="64.000000pt" viewBox="0 0 64.000000 64.000000"
 preserveAspectRatio="xMidYMid meet">
<metadata>
Created by potrace 1.15, written by Peter Selinger 2001-2017
</metadata>
<g transform="translate(0.000000,64.000000) scale(0.100000,-0.100000)"
fill="#000000" stroke="none">
<path d="M180 571 c-6 -12 -10 -113 -10 -259 0 -219 2 -240 18 -255 15 -14 40
-17 131 -17 62 0 121 5 132 10 18 10 19 24 19 263 0 184 -3 256 -12 265 -8 8
-54 12 -140 12 -116 0 -128 -2 -138 -19z m250 -256 l0 -185 -110 0 -110 0 0
185 0 185 110 0 110 0 0 -185z"/>
</g>
</svg>
